<svg width="48" height="49" viewBox="0 0 48 49" fill="none" xmlns="http://www.w3.org/2000/svg">
<g clip-path="url(#clip0_573_3613)">
<path fill-rule="evenodd" clip-rule="evenodd" d="M15.88 26.62C15.3182 26.0575 15.0027 25.295 15.0027 24.5C15.0027 23.705 15.3182 22.9425 15.88 22.38L27.192 11.064C27.7548 10.5015 28.518 10.1856 29.3138 10.1858C29.7078 10.1859 30.0979 10.2636 30.4618 10.4144C30.8258 10.5653 31.1565 10.7864 31.435 11.065C31.7136 11.3437 31.9345 11.6745 32.0852 12.0386C32.2359 12.4026 32.3134 12.7928 32.3133 13.1868C32.3132 13.5808 32.2355 13.9709 32.0846 14.3348C31.9338 14.6988 31.7127 15.0295 31.434 15.308L22.242 24.5L31.434 33.692C31.7207 33.9687 31.9494 34.2996 32.1068 34.6655C32.2642 35.0315 32.3471 35.4251 32.3508 35.8234C32.3544 36.2217 32.2787 36.6168 32.128 36.9856C31.9774 37.3543 31.7548 37.6894 31.4732 37.9712C31.1917 38.253 30.8568 38.4759 30.4882 38.6269C30.1196 38.778 29.7246 38.854 29.3263 38.8508C28.9279 38.8475 28.5342 38.7649 28.1681 38.6079C27.8021 38.4508 27.4709 38.2224 27.194 37.936L15.876 26.62H15.88Z" fill="#942661"/>
</g>
<defs>
<clipPath id="clip0_573_3613">
<rect width="48" height="48" fill="white" transform="translate(0 0.5)"/>
</clipPath>
</defs>
</svg>
